<svg width="28" height="25" viewBox="0 0 28 25" fill="none" xmlns="http://www.w3.org/2000/svg">
<path d="M19.8333 2.6582H8.16659C4.94492 2.6582 2.33325 4.89678 2.33325 7.6582V17.6582C2.33325 20.4196 4.94492 22.6582 8.16659 22.6582H19.8333C23.0549 22.6582 25.6666 20.4196 25.6666 17.6582V7.6582C25.6666 4.89678 23.0549 2.6582 19.8333 2.6582Z" stroke="white" stroke-width="2" stroke-linecap="round" stroke-linejoin="round"/>
<path d="M18.6667 12.028C18.8106 12.8603 18.6448 13.7102 18.1927 14.457C17.7406 15.2038 17.0253 15.8094 16.1485 16.1877C15.2718 16.566 14.2782 16.6976 13.3091 16.5639C12.34 16.4303 11.4447 16.0381 10.7506 15.4432C10.0566 14.8483 9.599 14.0809 9.44306 13.2502C9.28712 12.4196 9.44073 11.5679 9.88203 10.8164C10.3233 10.0649 11.0299 9.45176 11.9011 9.06426C12.7724 8.67676 13.764 8.5346 14.735 8.65802C15.7254 8.7839 16.6423 9.17948 17.3503 9.78632C18.0583 10.3932 18.5198 11.1791 18.6667 12.028Z" stroke="white" stroke-width="2" stroke-linecap="round" stroke-linejoin="round"/>
<path d="M20.4167 7.1582H20.4284" stroke="white" stroke-width="2" stroke-linecap="round" stroke-linejoin="round"/>
</svg>
