<svg width="28" height="29" viewBox="0 0 28 29" fill="none" xmlns="http://www.w3.org/2000/svg">
<path d="M18.6667 9.9917C20.5233 9.9917 22.3037 10.7292 23.6165 12.042C24.9293 13.3547 25.6667 15.1352 25.6667 16.9917V25.1584H21.0001V16.9917C21.0001 16.3729 20.7542 15.7794 20.3167 15.3418C19.8791 14.9042 19.2856 14.6584 18.6667 14.6584C18.0479 14.6584 17.4544 14.9042 17.0168 15.3418C16.5792 15.7794 16.3334 16.3729 16.3334 16.9917V25.1584H11.6667V16.9917C11.6667 15.1352 12.4042 13.3547 13.717 12.042C15.0298 10.7292 16.8102 9.9917 18.6667 9.9917V9.9917Z" stroke="white" stroke-width="2" stroke-linecap="round" stroke-linejoin="round"/>
<path d="M6.99992 11.1582H2.33325V25.1582H6.99992V11.1582Z" stroke="white" stroke-width="2" stroke-linecap="round" stroke-linejoin="round"/>
<path d="M4.66659 7.65837C5.95525 7.65837 6.99992 6.6137 6.99992 5.32503C6.99992 4.03637 5.95525 2.9917 4.66659 2.9917C3.37792 2.9917 2.33325 4.03637 2.33325 5.32503C2.33325 6.6137 3.37792 7.65837 4.66659 7.65837Z" stroke="white" stroke-width="2" stroke-linecap="round" stroke-linejoin="round"/>
</svg>
