<svg width="689" height="691" viewBox="0 0 689 691" fill="none" xmlns="http://www.w3.org/2000/svg">
<path d="M300.994 675.364C298.636 673.338 293.351 666.898 297.418 659.414C298.921 656.676 302.086 655.316 304.965 654.113C307.923 653.117 310.709 651.67 313.225 649.825C317.703 646.027 318.938 639.698 321.912 634.603C325.33 628.764 331.691 624.397 338.432 624.697C346.138 625.061 352.562 631.343 355.474 638.527C358.385 645.711 358.496 653.67 358.638 661.423C358.638 665.712 358.48 670.554 355.331 673.449C352.183 676.345 348.053 676.139 344.128 676.028L302.006 674.731" fill="#F5F5F5"/>
<path d="M381.567 559.536H270.803L290.756 678.512C291.171 680.998 292.284 683.314 293.965 685.191C295.646 687.068 297.825 688.429 300.25 689.114L300.646 689.225C300.962 689.304 301.279 689.415 301.627 689.478C302.368 689.619 303.119 689.703 303.874 689.731V689.874L304.412 689.795H353.797C354.705 689.794 355.612 689.704 356.502 689.526C359.386 689.079 362.044 687.7 364.07 685.6C366.096 683.499 367.379 680.793 367.721 677.895L377.279 595.883L377.706 592.623L381.503 560.122L381.567 559.536ZM360.664 635.489H349.303L350.442 600.962H363.623L360.664 635.489ZM364.731 600.962H375.601L371.55 635.489H361.772L364.731 600.962ZM332.245 673.75L331.549 643.685H347.926L346.929 673.75H332.245ZM314.539 643.685H330.457L331.137 673.75H316.896L314.539 643.685ZM315.773 673.75H302.434C301.168 665.648 299.522 655.125 297.687 643.685H313.399L315.773 673.75ZM313.985 635.425L311.295 600.899H329.539L330.346 635.425H313.985ZM331.391 635.425L330.599 600.899H349.382L348.227 635.425H331.391ZM330.41 592.702L329.666 560.707H350.711L349.651 592.702H330.41ZM329.302 592.702H310.583L308.083 560.707H328.542L329.302 592.702ZM309.507 592.702H289.68C288.984 588.271 288.319 584.094 287.718 580.328C285.661 567.4 284.886 562.543 284.443 560.707H306.991L309.507 592.702ZM310.156 600.978L312.83 635.504H296.437C295.883 632.007 295.329 628.463 294.854 624.919C293.573 616.769 292.275 608.62 291.073 600.978H310.156ZM295.361 635.504H284.664L278.873 600.978H289.949C291.563 611.564 293.414 623.415 295.329 635.425L295.361 635.504ZM296.658 643.796C298.241 654.176 299.823 664.366 301.405 673.86H291.136L286.104 643.796H296.658ZM348.068 673.86L349.065 643.796H359.999L357.436 673.86H348.068ZM350.758 592.765L351.819 560.77H367.088L364.367 592.765H350.758ZM283.43 560.77C283.873 563.096 285.898 575.676 288.604 592.765H277.528L272.164 560.77H283.43ZM367.104 673.86H358.528L361.091 643.796H370.585L367.104 673.86ZM376.598 592.765H365.443L368.18 560.77H380.348L376.598 592.765Z" fill="#E0E0E0"/>
<path d="M386.962 441.921L327.197 460.545C325.214 461.142 323.076 460.938 321.242 459.977C319.408 459.015 318.023 457.373 317.387 455.402L291.61 372.677C291.013 370.694 291.217 368.556 292.178 366.722C293.14 364.888 294.782 363.504 296.753 362.867L334.65 351.062L373.417 372.155L392.105 432.11C392.702 434.093 392.498 436.231 391.537 438.065C390.575 439.9 388.933 441.284 386.962 441.921Z" fill="#EBEBEB"/>
<path d="M334.65 351.062L341.913 374.339C342.495 376.175 343.781 377.706 345.49 378.595C347.198 379.485 349.189 379.662 351.028 379.086L373.418 372.108L334.65 351.062Z" fill="#E0E0E0"/>
<path d="M336.596 374.988C336.691 375.289 330.583 377.457 322.941 379.83C315.298 382.204 309.048 383.897 308.953 383.596C308.858 383.296 314.981 381.128 322.608 378.754C330.235 376.381 336.517 374.656 336.596 374.988Z" fill="#FAFAFA"/>
<path d="M358.56 382.551C358.655 382.852 348.543 386.27 335.98 390.178C323.416 394.087 313.146 397.03 313.051 396.729C312.957 396.429 323.068 393.011 335.647 389.102C348.227 385.194 358.465 382.251 358.56 382.551Z" fill="#FAFAFA"/>
<path d="M366.091 392.267C366.186 392.567 355.157 396.27 341.454 400.542C327.751 404.815 316.58 408.027 316.485 407.726C316.39 407.425 327.419 403.723 341.122 399.45C354.825 395.178 365.996 391.966 366.091 392.267Z" fill="#FAFAFA"/>
<path d="M369.367 402.632C369.462 402.932 358.433 406.635 344.73 410.907C331.027 415.18 319.855 418.392 319.76 418.091C319.665 417.791 330.694 414.088 344.397 409.816C358.101 405.543 369.224 402.331 369.367 402.632Z" fill="#FAFAFA"/>
<path d="M372.532 412.963C372.627 413.264 361.598 416.967 347.911 421.239C334.223 425.511 323.02 428.723 322.925 428.423C322.83 428.122 333.859 424.435 347.562 420.163C361.266 415.891 372.532 412.71 372.532 412.963Z" fill="#FAFAFA"/>
<path d="M375.775 423.376C375.87 423.677 364.841 427.379 351.154 431.652C337.467 435.924 326.28 439.136 326.185 438.835C326.09 438.535 337.119 434.832 350.806 430.56C364.493 426.287 375.696 423.075 375.775 423.376Z" fill="#FAFAFA"/>
<path d="M640.549 119.139L582.208 96.4957C580.287 95.7231 578.745 94.2283 577.914 92.332C577.083 90.4357 577.028 88.2891 577.762 86.3529L609.171 5.65348C609.542 4.69485 610.099 3.81881 610.809 3.07552C611.519 2.33224 612.368 1.73629 613.309 1.32182C614.25 0.907335 615.263 0.682459 616.29 0.660059C617.318 0.63766 618.34 0.818177 619.298 1.19128L656.309 15.5906L673.462 56.146L650.692 114.693C649.919 116.614 648.424 118.155 646.528 118.986C644.632 119.818 642.485 119.872 640.549 119.139Z" fill="#EBEBEB"/>
<path d="M656.309 15.4961L647.463 38.2185C647.106 39.1135 646.93 40.0705 646.945 41.0341C646.96 41.9978 647.166 42.9488 647.552 43.832C647.938 44.7152 648.495 45.513 649.191 46.1792C649.888 46.8453 650.71 47.3665 651.609 47.7126L673.461 56.2098L656.309 15.4961Z" fill="#E0E0E0"/>
<path d="M642.922 35.3853C642.811 35.6859 636.687 33.5656 629.235 30.6383C621.782 27.7109 615.832 25.1475 615.943 24.8627C616.054 24.5779 622.193 26.6824 629.646 29.6097C637.099 32.5371 643.112 35.1005 642.922 35.3853Z" fill="#FAFAFA"/>
<path d="M655.359 55.0233C655.248 55.3081 645.216 51.6845 632.953 46.9059C620.69 42.1272 610.801 38.0289 610.943 37.7441C611.085 37.4593 621.086 41.1145 633.365 45.8615C645.644 50.6085 655.47 54.7226 655.359 55.0233Z" fill="#FAFAFA"/>
<path d="M655.185 67.3013C655.075 67.602 644.109 63.6145 630.77 58.4085C617.431 53.2026 606.718 48.7563 606.718 48.4714C606.718 48.1866 617.795 52.1583 631.134 57.3642C644.473 62.5701 655.296 67.0165 655.185 67.3013Z" fill="#FAFAFA"/>
<path d="M651.245 77.5081C651.134 77.7929 640.169 73.8212 626.83 68.6153C613.491 63.4094 602.715 58.963 602.826 58.6624C602.936 58.3617 613.902 62.3651 627.241 67.5551C640.58 72.7452 651.372 77.1283 651.245 77.5081Z" fill="#FAFAFA"/>
<path d="M647.321 87.556C647.195 87.8408 636.245 83.8691 622.906 78.6632C609.566 73.4573 598.775 69.0109 598.886 68.7103C598.996 68.4096 609.962 72.3971 623.317 77.603C636.672 82.8089 647.432 87.2553 647.321 87.556Z" fill="#FAFAFA"/>
<path d="M643.381 97.6666C643.255 97.9673 632.305 93.9798 618.966 88.7897C605.627 83.5996 594.835 79.0899 594.962 78.8367C595.088 78.5836 606.038 82.5236 619.377 87.7295C632.716 92.9354 643.492 97.3818 643.381 97.6666Z" fill="#FAFAFA"/>
<path d="M92.4574 350.145C93.6709 350.348 94.7583 351.014 95.4903 352.003C96.2224 352.992 96.5419 354.226 96.3816 355.446C96.1442 357.028 95.9069 358.611 95.8119 359.37L90.432 394.672C90.2956 395.473 89.8565 396.191 89.2055 396.677C88.5545 397.163 87.7416 397.38 86.935 397.283L6.1406 384.988C5.37245 384.85 4.6826 384.432 4.2036 383.816C3.7246 383.2 3.49024 382.428 3.54556 381.65L7.67547 335.904C7.72068 335.489 7.84763 335.087 8.04899 334.721C8.25034 334.355 8.52213 334.033 8.84867 333.772C9.17522 333.512 9.55007 333.319 9.95161 333.204C10.3532 333.089 10.7735 333.055 11.1883 333.103L29.4643 335.888C31.187 336.163 32.7597 337.03 33.9107 338.341L37.1861 342.123L92.4574 350.145Z" fill="#E0E0E0"/>
<path d="M97.7471 355.821L9.45557 342.39L1.34992 395.671L89.6415 409.103L97.7471 355.821Z" fill="#F5F5F5"/>
<path d="M1.70974 346.11L0.000809724 402.694C-0.0129728 403.178 0.149587 403.65 0.458184 404.023C0.766782 404.395 1.20036 404.643 1.67809 404.72L87.71 417.806C88.2117 417.876 88.721 417.751 89.1332 417.456C89.5454 417.162 89.8289 416.72 89.9253 416.223L102.711 361.316C102.773 361.053 102.781 360.779 102.735 360.513C102.688 360.246 102.588 359.992 102.439 359.766C102.291 359.539 102.099 359.345 101.873 359.195C101.648 359.046 101.394 358.944 101.128 358.895L4.01996 344.132C3.73424 344.086 3.44194 344.103 3.16337 344.181C2.8848 344.259 2.62664 344.397 2.40681 344.586C2.18698 344.774 2.01076 345.008 1.89038 345.271C1.77001 345.534 1.70837 345.82 1.70974 346.11Z" fill="#EBEBEB"/>
<path d="M208.443 354.83C191.037 363.881 177.603 379.435 167.982 396.588C158.361 413.741 152.159 432.523 146.019 451.211L140.639 547.464C160.941 512.922 177.255 472.303 181.653 432.476L168.14 431.257C177.207 429.881 184.802 423.345 189.644 415.529C194.486 407.712 196.971 398.772 199.407 389.926L182.919 392.395C195.941 383.622 205.082 370.168 208.443 354.83Z" fill="#ADADFF"/>
<g opacity="0.3">
<path d="M208.443 354.83C191.037 363.881 177.603 379.435 167.982 396.588C158.361 413.741 152.159 432.523 146.019 451.211L140.639 547.464C160.941 512.922 177.255 472.303 181.653 432.476L168.14 431.257C177.207 429.881 184.802 423.345 189.644 415.529C194.486 407.712 196.971 398.772 199.407 389.926L182.919 392.395C195.941 383.622 205.082 370.168 208.443 354.83Z" fill="black"/>
</g>
<path d="M137.633 570.06C137.633 570.06 93.5485 517.304 94.0391 466.938H111.856C111.856 466.938 92.4567 454.216 94.0391 447.096C95.6214 439.975 96.0961 412.965 96.0961 412.965L112.378 417.047C112.378 417.047 100.163 410.939 98.6437 401.224C97.1246 391.508 102.204 346.791 102.204 346.791C102.204 346.791 122.047 367.646 128.154 389.008C134.262 410.37 150.307 435.307 145.56 500.436C140.813 565.566 137.633 570.06 137.633 570.06Z" fill="#ADADFF"/>
<path d="M159.975 575.044C159.975 575.044 207.746 543.223 218.348 502.62L204.028 498.728C204.028 498.728 222.367 492.731 222.699 486.67C223.032 480.61 228.538 458.853 228.538 458.853L214.566 458.568C214.566 458.568 225.642 456.321 229.06 448.884C232.478 441.447 238.032 404.31 238.032 404.31C238.032 404.31 217.462 416.747 207.968 432.586C198.474 448.425 180.055 464.961 169.58 518.349C159.105 571.737 159.975 575.044 159.975 575.044Z" fill="#ADADFF"/>
<path d="M114.246 392.869C114.315 393.043 114.368 393.223 114.404 393.407L114.784 394.99L116.176 401.319C116.793 404.025 117.505 407.363 118.281 411.24C119.056 415.117 119.974 419.532 120.86 424.437C122.759 434.216 124.752 445.925 126.794 458.932C128.835 471.939 130.765 486.306 132.537 501.402C134.31 516.498 135.607 530.929 136.636 544.125C137.664 557.322 138.345 569.11 138.74 579.063C138.978 584.048 139.104 588.557 139.215 592.497C139.326 596.437 139.421 599.871 139.452 602.656C139.484 605.441 139.452 607.545 139.452 609.065V610.726C139.477 610.915 139.477 611.107 139.452 611.296C139.432 611.112 139.432 610.926 139.452 610.742C139.452 610.315 139.452 609.761 139.452 609.065C139.452 607.482 139.326 605.409 139.231 602.656C139.136 599.903 139.041 596.469 138.851 592.513C138.661 588.557 138.535 584.064 138.25 579.095C137.775 569.142 136.984 557.322 135.971 544.189C134.958 531.055 133.534 516.656 131.81 501.56C130.085 486.465 128.091 472.129 126.145 459.106C124.199 446.083 122.205 434.406 120.385 424.611C119.531 419.706 118.66 415.291 117.917 411.398C117.173 407.506 116.524 404.167 115.97 401.445C115.417 398.724 115.005 396.698 114.72 395.116C114.594 394.436 114.483 393.882 114.42 393.534C114.338 393.319 114.279 393.096 114.246 392.869Z" fill="#263238"/>
<path d="M131.525 602.371C131.525 602.371 91.1751 556.61 78.6587 528.935L88.1528 524.9C81.3012 526.023 74.2756 523.08 68.959 518.57C63.6423 514.061 59.7497 508.222 55.9205 502.415L68.3735 500.31C56.9313 497.041 47.1858 489.494 41.1572 479.233C55.8572 481.654 69.1647 489.724 80.1145 499.804C88.8185 508.163 96.7223 517.317 103.723 527.147C107.247 531.872 110.314 536.922 112.885 542.226C119.626 556.278 131.541 585.567 131.525 602.371Z" fill="#ADADFF"/>
<path d="M219.044 430.956C219.001 431.116 218.937 431.271 218.854 431.415L218.237 432.744L215.785 437.823C213.617 442.222 210.563 448.615 206.844 456.542C203.126 464.47 198.854 473.948 194.186 484.597C189.518 495.246 184.771 507.003 179.945 519.409C175.118 531.814 170.814 543.856 167.033 554.806C163.251 565.756 160.055 575.677 157.539 584.032C155.023 592.386 152.918 599.191 151.557 603.89L149.975 609.302C149.785 609.887 149.643 610.346 149.532 610.71C149.421 611.074 149.374 611.185 149.358 611.169C149.365 611.03 149.386 610.892 149.421 610.757C149.516 610.394 149.627 609.935 149.785 609.333C150.133 608.036 150.608 606.169 151.225 603.89C152.491 599.143 154.39 592.339 156.969 583.953C159.548 575.566 162.65 565.613 166.352 554.632C170.055 543.65 174.406 531.672 179.217 519.203C184.027 506.734 188.948 494.962 193.458 484.392C197.967 473.822 202.445 464.296 206.227 456.384C210.009 448.472 213.158 442.143 215.405 437.776L218 432.76C218.285 432.238 218.506 431.81 218.696 431.478C218.886 431.146 219.044 430.94 219.044 430.956Z" fill="#263238"/>
<path d="M134.943 621.993C134.842 621.723 134.778 621.441 134.753 621.154C134.642 620.506 134.516 619.699 134.357 618.717C134.041 616.613 133.519 613.559 132.775 609.825C132.031 606.09 131.019 601.644 129.705 596.786C128.392 591.928 126.667 586.643 124.626 581.184C122.585 575.725 120.306 570.678 118.122 566.136C115.939 561.595 113.755 557.592 111.793 554.3C109.831 551.009 108.249 548.382 107.046 546.594L105.733 544.506C105.554 544.277 105.415 544.02 105.321 543.746C105.527 543.945 105.708 544.168 105.859 544.411C106.255 544.949 106.73 545.597 107.299 546.404C108.549 548.145 110.258 550.74 112.252 554.016C114.246 557.291 116.461 561.263 118.724 565.788C120.986 570.314 123.233 575.425 125.322 580.9C127.411 586.374 129.104 591.77 130.433 596.517C131.762 601.264 132.696 605.869 133.36 609.651C134.025 613.432 134.468 616.486 134.674 618.607C134.769 619.604 134.848 620.411 134.911 621.059C134.966 621.367 134.977 621.682 134.943 621.993Z" fill="#263238"/>
<path d="M188.173 611.217H99.8779V629.224H188.173V611.217Z" fill="#7B8195"/>
<path d="M108.296 629.238L117.837 689.81H171.194L180.087 629.238H108.296Z" fill="#7B8195"/>
<path d="M182.761 629.239C182.761 629.46 166.051 629.65 145.449 629.65C124.847 629.65 108.153 629.46 108.153 629.239C108.153 629.017 124.847 628.827 145.449 628.827C166.051 628.827 182.761 629.001 182.761 629.239Z" fill="#263238"/>
<path d="M476.713 24.0088H82.4409V270.965H476.713V24.0088Z" fill="white"/>
<path d="M476.713 24.0088H82.4409V46.6363H476.713V24.0088Z" fill="#ADADFF"/>
<path d="M476.713 266.075H82.2983V310.602H476.713V266.075Z" fill="#F5F5F5"/>
<path d="M163.377 287.611H166.906L168.014 289.921H168.773L165.245 282.563H165.039L161.51 289.921H162.27L163.377 287.611ZM165.15 283.94L166.574 286.931H163.662L165.15 283.94Z" fill="#263238"/>
<path d="M169.296 291.504H160.941V292.089H169.296V291.504Z" fill="#263238"/>
<path d="M111.445 282.137H110.891C110.091 282.193 109.342 282.551 108.796 283.138C108.249 283.726 107.946 284.499 107.948 285.301C108.342 287.638 109.359 289.824 110.891 291.631C110.891 291.631 111.097 292.011 111.445 291.631C112.978 289.824 113.995 287.638 114.388 285.301C114.39 284.499 114.088 283.726 113.541 283.138C112.995 282.551 112.246 282.193 111.445 282.137ZM111.16 287.153C110.815 287.153 110.478 287.05 110.192 286.858C109.905 286.666 109.682 286.394 109.551 286.075C109.42 285.756 109.386 285.405 109.455 285.067C109.523 284.729 109.69 284.419 109.935 284.176C110.18 283.933 110.492 283.768 110.831 283.703C111.169 283.638 111.52 283.674 111.838 283.809C112.155 283.943 112.426 284.168 112.615 284.457C112.805 284.745 112.904 285.083 112.901 285.428C112.901 285.883 112.721 286.319 112.401 286.642C112.081 286.965 111.647 287.149 111.192 287.153H111.16Z" fill="#263238"/>
<path d="M150.592 289.541C150.592 290.015 150.404 290.47 150.069 290.805C149.733 291.141 149.279 291.329 148.804 291.329C148.33 291.329 147.875 291.141 147.54 290.805C147.205 290.47 147.016 290.015 147.016 289.541V283.765C147.016 283.459 147.138 283.165 147.355 282.949C147.571 282.732 147.865 282.61 148.171 282.61C148.478 282.61 148.772 282.732 148.988 282.949C149.205 283.165 149.327 283.459 149.327 283.765V288.655C149.295 288.8 149.215 288.931 149.1 289.025C148.986 289.12 148.842 289.173 148.694 289.177C148.543 289.174 148.397 289.121 148.28 289.027C148.163 288.932 148.08 288.801 148.045 288.655V284.794H147.618V288.402V288.576C147.655 288.832 147.782 289.066 147.976 289.237C148.171 289.408 148.419 289.504 148.678 289.509C148.936 289.501 149.182 289.404 149.376 289.233C149.57 289.063 149.698 288.83 149.738 288.576V288.481C149.739 288.454 149.739 288.428 149.738 288.402V283.655C149.738 283.235 149.571 282.832 149.274 282.536C148.978 282.239 148.575 282.072 148.156 282.072C147.736 282.072 147.333 282.239 147.037 282.536C146.74 282.832 146.573 283.235 146.573 283.655V289.699C146.628 290.249 146.885 290.759 147.294 291.13C147.704 291.501 148.236 291.708 148.789 291.709C149.34 291.711 149.873 291.505 150.28 291.133C150.688 290.761 150.94 290.249 150.988 289.699V284.794H150.561L150.592 289.541Z" fill="#263238"/>
<path d="M131.573 285.143L129.99 281.788L128.329 285.143L124.642 285.681L127.316 288.292L126.683 291.963L129.99 290.222L133.298 291.963L132.665 288.292L135.339 285.681L131.573 285.143ZM132.522 290.981L129.927 289.621L127.332 290.981L127.807 288.244V288.102L125.686 286.06L128.582 285.633L129.88 283.006L131.177 285.633L134.073 286.06L132.127 287.959L132.016 288.07L132.522 290.981Z" fill="#263238"/>
<path d="M196.686 277.674H196.148V294.842H196.686V277.674Z" fill="#263238"/>
<path d="M186.195 283.75H179.359V291.029H186.195V283.75Z" fill="#263238"/>
<path d="M181.511 282.041V282.595H184.027V282.041H186.179V283.164H179.359V282.041H181.511Z" fill="#263238"/>
<path d="M184.027 281.473H181.511V282.026H184.027V281.473Z" fill="#263238"/>
<path d="M184.027 282.041H181.511V282.595H184.027V282.041Z" fill="#263238"/>
<path d="M212.161 287.643L214.25 285.555L214.503 285.808L212.161 288.15L209.804 285.808L210.057 285.555L212.161 287.643Z" fill="#263238"/>
<path d="M454.972 110.737C454.369 110.74 453.792 110.976 453.358 111.394C452.925 111.812 452.67 112.382 452.646 112.983V121.813C452.703 122.632 453.069 123.399 453.669 123.959C454.27 124.519 455.06 124.83 455.881 124.83C456.702 124.83 457.493 124.519 458.094 123.959C458.694 123.399 459.06 122.632 459.117 121.813V114.692H458.484V121.512C458.433 122.172 458.135 122.787 457.649 123.237C457.164 123.686 456.527 123.935 455.866 123.935C455.204 123.935 454.567 123.686 454.082 123.237C453.596 122.787 453.298 122.172 453.247 121.512V113.063C453.247 112.614 453.425 112.183 453.743 111.865C454.06 111.548 454.491 111.37 454.94 111.37C455.389 111.37 455.82 111.548 456.137 111.865C456.455 112.183 456.633 112.614 456.633 113.063V120.231C456.583 120.441 456.464 120.629 456.295 120.764C456.126 120.899 455.916 120.973 455.699 120.974C455.492 120.96 455.294 120.881 455.135 120.747C454.976 120.613 454.863 120.432 454.813 120.231V114.708H454.18V119.993V120.231C454.18 120.65 454.347 121.053 454.644 121.35C454.941 121.646 455.343 121.813 455.763 121.813C456.182 121.813 456.585 121.646 456.882 121.35C457.178 121.053 457.345 120.65 457.345 120.231V120.088C457.345 120.088 457.345 120.009 457.345 119.977V112.983C457.32 112.373 457.058 111.797 456.615 111.378C456.172 110.958 455.582 110.728 454.972 110.737Z" fill="#263238"/>
<path d="M238.111 64.7229C238.111 64.9445 212.92 65.1343 181.843 65.1343C150.766 65.1343 125.575 64.9445 125.575 64.7229C125.575 64.5014 150.766 64.3115 181.843 64.3115C212.92 64.3115 238.111 64.4856 238.111 64.7229Z" fill="#263238"/>
<path d="M288.367 90.388C288.367 90.6253 251.973 90.7994 206.971 90.7994C161.969 90.7994 125.575 90.6253 125.575 90.388C125.575 90.1506 161.969 89.9766 206.971 89.9766C251.973 89.9766 288.367 90.1664 288.367 90.388Z" fill="#263238"/>
<path d="M228.175 115.88C227.927 115.904 227.678 115.904 227.431 115.88H225.279L217.367 116.007C210.706 116.007 201.544 116.133 191.385 116.133C181.227 116.133 172.049 116.133 165.403 116.007L157.491 115.88H155.355C155.103 115.903 154.848 115.903 154.596 115.88C154.843 115.81 155.099 115.778 155.355 115.785H157.491L165.403 115.659C172.049 115.659 181.227 115.548 191.385 115.548C201.544 115.548 210.706 115.548 217.367 115.659L225.279 115.785H227.431C227.682 115.776 227.933 115.808 228.175 115.88Z" fill="#263238"/>
<path d="M472.457 129.725C472.457 129.946 385.143 130.136 277.465 130.136C169.786 130.136 82.4409 129.962 82.4409 129.725C82.4409 129.488 169.739 129.313 277.465 129.313C385.19 129.313 472.457 129.503 472.457 129.725Z" fill="#E0E0E0"/>
<path d="M472.456 101.939C472.456 102.176 385.111 102.35 277.385 102.35C169.659 102.35 82.2983 102.176 82.2983 101.939C82.2983 101.701 169.628 101.527 277.385 101.527C385.143 101.527 472.456 101.717 472.456 101.939Z" fill="#E0E0E0"/>
<path d="M472.457 77.5071C472.457 77.7286 385.143 77.9185 277.465 77.9185C169.786 77.9185 82.4409 77.7761 82.4409 77.5071C82.4409 77.2381 169.739 77.0957 277.465 77.0957C385.19 77.0957 472.457 77.3331 472.457 77.5071Z" fill="#E0E0E0"/>
<path d="M134.801 163.636C130.346 164.043 125.87 164.18 121.398 164.047C116.921 164.18 112.44 164.043 107.98 163.636C112.44 163.228 116.921 163.091 121.398 163.224C125.87 163.091 130.346 163.228 134.801 163.636Z" fill="#263238"/>
<path d="M287.512 179.157C287.512 179.379 246.91 179.569 196.86 179.569C146.811 179.569 106.192 179.379 106.192 179.157C106.192 178.936 146.779 178.777 196.892 178.777C247.005 178.777 287.512 178.936 287.512 179.157Z" fill="#263238"/>
<path d="M257.432 190.012C257.432 190.202 223.57 190.36 181.812 190.36C140.054 190.36 106.192 190.202 106.192 190.012C106.192 189.822 140.038 189.664 181.812 189.664C223.586 189.664 257.432 189.854 257.432 190.012Z" fill="#263238"/>
<path d="M93.4858 37.7754C94.8404 37.7754 95.9385 36.6773 95.9385 35.3227C95.9385 33.9682 94.8404 32.8701 93.4858 32.8701C92.1313 32.8701 91.0332 33.9682 91.0332 35.3227C91.0332 36.6773 92.1313 37.7754 93.4858 37.7754Z" fill="white"/>
<path d="M102.205 37.7754C103.559 37.7754 104.657 36.6773 104.657 35.3227C104.657 33.9682 103.559 32.8701 102.205 32.8701C100.85 32.8701 99.752 33.9682 99.752 35.3227C99.752 36.6773 100.85 37.7754 102.205 37.7754Z" fill="white"/>
<path d="M110.923 37.7754C112.277 37.7754 113.375 36.6773 113.375 35.3227C113.375 33.9682 112.277 32.8701 110.923 32.8701C109.568 32.8701 108.47 33.9682 108.47 35.3227C108.47 36.6773 109.568 37.7754 110.923 37.7754Z" fill="white"/>
<path d="M478.295 310.587C478.295 307.834 478.153 197.798 477.963 24.0091L478.295 24.3414L82.4724 24.4205L82.8838 24.0091C82.8838 126.751 82.8838 224.191 82.8838 310.587L82.5041 310.223L478.359 310.587L82.5041 310.967H82.1401V310.587C82.1401 224.191 82.1401 126.751 82.1401 24.0091V23.5977H82.5832H478.406H478.738V23.9299C478.422 197.766 478.295 307.834 478.295 310.587Z" fill="#263238"/>
<path d="M599.518 598.303H590.373V603.224H599.518V598.303Z" fill="#E0E0E0"/>
<path d="M596.386 474.278H575.261V579.045H596.386V474.278Z" fill="#EBEBEB"/>
<path d="M633.761 479.8H534.611C529.546 479.8 524.688 477.788 521.106 474.207C517.524 470.625 515.512 465.767 515.512 460.702C515.51 458.192 516.003 455.707 516.962 453.388C517.92 451.069 519.327 448.962 521.101 447.186C522.874 445.411 524.98 444.003 527.299 443.042C529.617 442.081 532.102 441.587 534.611 441.587H633.761C636.27 441.587 638.755 442.081 641.073 443.042C643.391 444.003 645.498 445.411 647.271 447.186C649.045 448.962 650.451 451.069 651.41 453.388C652.369 455.707 652.862 458.192 652.86 460.702C652.86 463.21 652.366 465.693 651.406 468.01C650.446 470.328 649.039 472.433 647.266 474.207C645.492 475.98 643.387 477.387 641.069 478.347C638.752 479.306 636.269 479.8 633.761 479.8Z" fill="#ADADFF"/>
<path d="M592.588 579.045H579.201V653.415H592.588V579.045Z" fill="#E0E0E0"/>
<path d="M532.206 689.667C529.579 689.999 645.011 689.667 645.011 689.667C645.011 689.667 595.768 684.16 592.588 653.415H579.201C579.201 653.415 575.831 684.112 532.206 689.667Z" fill="#E0E0E0"/>
<path d="M637.685 479.801C637.685 480.023 614.757 480.212 586.48 480.212C558.204 480.212 535.276 480.023 535.276 479.801C535.276 479.579 558.204 479.39 586.48 479.39C614.757 479.39 637.685 479.579 637.685 479.801Z" fill="#263238"/>
<path d="M596.37 579.108C589.281 579.655 582.16 579.655 575.071 579.108C582.165 578.559 589.291 578.559 596.385 579.108H596.37Z" fill="#263238"/>
<path d="M599.519 608.729C598.804 608.729 598.118 608.446 597.611 607.942C597.104 607.438 596.817 606.754 596.813 606.039V595.485C596.817 594.769 597.104 594.083 597.61 593.576C598.117 593.07 598.802 592.783 599.519 592.779C600.235 592.783 600.921 593.07 601.428 593.576C601.934 594.083 602.22 594.769 602.225 595.485V606.008C602.227 606.364 602.158 606.718 602.023 607.048C601.888 607.378 601.689 607.678 601.438 607.931C601.186 608.184 600.887 608.385 600.558 608.522C600.229 608.659 599.875 608.729 599.519 608.729Z" fill="#E0E0E0"/>
<path d="M388.545 175.137C388.545 175.137 393.181 170.057 394.589 169.946C395.998 169.836 410.413 174.155 410.413 174.155C412.084 174.472 413.644 175.219 414.938 176.323C416.236 177.906 430.493 193.333 430.493 193.333L414.669 207.29C414.669 207.29 396.093 203.951 394.479 202.005C392.865 200.058 391.567 196.941 392.754 195.96C391.954 194.592 391.58 193.016 391.678 191.435C391.938 190.32 392.26 189.222 392.643 188.143C392.643 188.143 389.842 186.134 389.732 184.741C389.698 183.99 389.515 183.253 389.194 182.574L388.545 181.498V175.137Z" fill="#FFBE9D"/>
<path d="M395.017 178.159C395.096 178.159 395.017 178.65 394.764 179.362C394.399 180.312 393.794 181.152 393.007 181.798C392.593 182.119 392.113 182.346 391.602 182.463C391.092 182.581 390.561 182.586 390.048 182.479C389.257 182.273 388.941 181.846 389.004 181.798C389.067 181.751 389.447 181.957 390.127 182.02C391.018 182.061 391.896 181.793 392.612 181.26C393.311 180.671 393.896 179.957 394.336 179.156C394.685 178.523 394.922 178.127 395.017 178.159Z" fill="#EB996E"/>
<path d="M331.549 141.923C329.262 141.91 327.062 142.804 325.432 144.408C323.801 146.012 322.871 148.196 322.846 150.483L322.103 245.914C322.09 248.202 322.983 250.401 324.587 252.032C326.191 253.663 328.376 254.592 330.663 254.617L399.606 255.155C401.893 255.168 404.093 254.275 405.723 252.671C407.354 251.067 408.284 248.882 408.309 246.595L408.768 151.116C408.776 149.954 408.555 148.802 408.117 147.725C407.679 146.649 407.032 145.669 406.215 144.843C405.398 144.017 404.425 143.36 403.354 142.911C402.282 142.461 401.132 142.228 399.97 142.224L331.549 141.923Z" fill="#E0E0E0"/>
<path d="M369.367 170.864C369.367 171.212 362.231 171.434 353.417 171.371C344.604 171.307 337.467 170.959 337.467 170.611C337.467 170.263 344.619 170.041 353.433 170.121C362.247 170.2 369.367 170.564 369.367 170.864Z" fill="#E0E0E0"/>
<path d="M389.779 183.333C389.779 183.681 378.007 183.871 363.513 183.744C349.018 183.618 337.277 183.27 337.277 182.922C337.277 182.574 349.034 182.384 363.528 182.494C378.023 182.605 389.779 182.985 389.779 183.333Z" fill="#E0E0E0"/>
<path d="M394.399 196.055C394.399 196.403 381.582 196.577 365.775 196.45C349.967 196.324 337.166 195.944 337.166 195.596C337.166 195.248 349.983 195.074 365.791 195.2C381.598 195.327 394.399 195.707 394.399 196.055Z" fill="#E0E0E0"/>
<path d="M394.305 208.018C394.305 208.366 381.488 208.54 365.696 208.413C349.904 208.287 337.071 207.907 337.071 207.559C337.071 207.211 349.888 207.037 365.696 207.163C381.503 207.29 394.305 207.67 394.305 208.018Z" fill="#E0E0E0"/>
<path d="M394.21 219.917C394.21 220.265 381.393 220.439 365.601 220.313C349.809 220.186 336.977 219.806 336.977 219.458C336.977 219.11 349.794 218.936 365.601 219.063C381.409 219.189 394.21 219.632 394.21 219.917Z" fill="#E0E0E0"/>
<path d="M394.115 231.943C394.115 232.291 381.298 232.465 365.506 232.339C349.714 232.212 336.882 231.832 336.897 231.5C336.913 231.168 349.699 230.962 365.506 231.089C381.314 231.215 394.115 231.595 394.115 231.943Z" fill="#E0E0E0"/>
<path d="M328.353 139.075C327.22 139.067 326.097 139.282 325.048 139.708C323.998 140.133 323.043 140.762 322.236 141.556C321.43 142.351 320.788 143.297 320.347 144.341C319.905 145.384 319.674 146.503 319.666 147.636L318.906 243.067C318.894 245.354 319.787 247.554 321.391 249.185C322.995 250.815 325.18 251.745 327.467 251.77L396.425 252.308C397.558 252.316 398.681 252.101 399.73 251.676C400.78 251.25 401.735 250.622 402.542 249.827C403.349 249.032 403.991 248.086 404.432 247.043C404.873 246 405.104 244.88 405.112 243.747L405.587 148.253C405.596 145.91 404.674 143.659 403.024 141.995C401.375 140.33 399.132 139.389 396.789 139.376L328.353 139.075Z" fill="white"/>
<path d="M328.353 139.074C328.353 139.074 328.701 139.074 329.35 139.074H332.245H343.401H384.431H394.51C395.693 139.033 396.877 139.07 398.055 139.185C399.297 139.356 400.489 139.784 401.557 140.44C402.624 141.096 403.544 141.968 404.258 142.998C405.013 144.049 405.526 145.254 405.761 146.527C405.931 147.796 405.984 149.077 405.919 150.356C405.919 160.546 405.84 171.433 405.793 182.873C405.745 194.313 405.698 206.339 405.634 218.808C405.634 225.027 405.634 231.372 405.555 237.796C405.555 239.378 405.555 240.961 405.555 242.654C405.675 244.343 405.37 246.034 404.669 247.575C403.926 249.135 402.752 250.45 401.285 251.364C399.819 252.278 398.121 252.753 396.393 252.733L357.8 252.417L339.461 252.259H330.568C329.089 252.284 327.61 252.231 326.137 252.101C324.644 251.872 323.236 251.255 322.055 250.312C320.891 249.405 319.966 248.228 319.359 246.882C318.753 245.537 318.483 244.064 318.574 242.591C318.574 239.79 318.574 237.037 318.653 234.331C318.653 228.903 318.748 223.634 318.795 218.507C318.89 208.317 318.985 198.839 319.064 190.168C319.254 172.873 319.412 158.869 319.523 149.153C319.481 148.002 319.571 146.85 319.792 145.72C320.03 144.726 320.442 143.783 321.011 142.935C321.9 141.604 323.136 140.542 324.587 139.865C325.477 139.459 326.429 139.208 327.403 139.121C327.73 139.097 328.058 139.097 328.384 139.121C327.096 139.174 325.831 139.487 324.666 140.039C323.261 140.718 322.068 141.769 321.216 143.077C320.673 143.907 320.287 144.829 320.077 145.799C319.873 146.91 319.794 148.04 319.84 149.169C319.84 158.885 319.729 172.904 319.65 190.199C319.65 198.855 319.539 208.349 319.476 218.523C319.476 223.618 319.476 228.888 319.381 234.347C319.381 237.068 319.381 239.822 319.381 242.606C319.29 243.963 319.531 245.322 320.082 246.565C320.634 247.809 321.479 248.899 322.546 249.743C323.64 250.582 324.931 251.127 326.296 251.325C327.727 251.445 329.164 251.493 330.6 251.468H339.492L357.848 251.594L396.425 251.895C398.004 251.913 399.556 251.475 400.892 250.633C402.228 249.791 403.292 248.581 403.957 247.148C404.606 245.715 404.889 244.144 404.78 242.575C404.78 240.992 404.78 239.41 404.78 237.733C404.78 231.309 404.812 224.979 404.875 218.745C404.875 206.292 405.017 194.266 405.081 182.826C405.144 171.385 405.223 160.499 405.286 150.308C405.344 149.067 405.296 147.823 405.144 146.59C404.921 145.418 404.452 144.307 403.767 143.33C403.104 142.371 402.25 141.558 401.259 140.943C400.268 140.328 399.162 139.923 398.007 139.754C396.9 139.612 395.713 139.675 394.558 139.643H391.124H384.478L343.448 139.327L332.293 139.2H329.397L328.353 139.074Z" fill="#263238"/>
<path d="M366.108 168.063C366.108 168.412 358.955 168.633 350.142 168.57C341.328 168.507 334.208 168.158 334.208 167.81C334.208 167.462 341.344 167.241 350.158 167.32C358.971 167.399 366.108 167.7 366.108 168.063Z" fill="#263238"/>
<path d="M386.583 180.485C386.583 180.834 374.826 181.023 360.332 180.897C345.838 180.77 334.081 180.422 334.081 180.074C334.081 179.726 345.838 179.536 360.348 179.647C374.858 179.758 386.583 180.137 386.583 180.485Z" fill="#263238"/>
<path d="M391.219 193.207C391.219 193.555 378.402 193.729 362.595 193.603C346.787 193.476 333.986 193.096 333.986 192.748C333.986 192.4 346.803 192.226 362.61 192.353C378.418 192.479 391.219 192.859 391.219 193.207Z" fill="#263238"/>
<path d="M391.124 205.169C391.124 205.517 378.307 205.691 362.5 205.565C346.692 205.438 333.891 205.058 333.891 204.71C333.891 204.362 346.708 204.188 362.516 204.315C378.323 204.441 391.124 204.821 391.124 205.169Z" fill="#263238"/>
<path d="M391.029 217.132C391.029 217.48 378.212 217.654 362.405 217.528C346.597 217.401 333.796 217.021 333.796 216.673C333.796 216.325 346.613 216.151 362.42 216.278C378.228 216.404 391.029 216.752 391.029 217.132Z" fill="#263238"/>
<path d="M390.934 229.094C390.934 229.442 378.118 229.617 362.31 229.49C346.502 229.363 333.701 228.984 333.701 228.651C333.701 228.319 346.518 228.113 362.326 228.24C378.133 228.366 390.934 228.746 390.934 229.094Z" fill="#263238"/>
<path d="M337.024 156.876C335.845 156.876 334.714 156.407 333.88 155.573C333.046 154.74 332.578 153.609 332.578 152.429V141.353C332.578 140.56 332.893 139.799 333.454 139.238C334.015 138.677 334.775 138.362 335.568 138.362C336.362 138.362 337.122 138.677 337.683 139.238C338.244 139.799 338.559 140.56 338.559 141.353V149.265C338.573 149.351 338.568 149.439 338.545 149.523C338.522 149.607 338.48 149.685 338.424 149.751C338.367 149.818 338.297 149.871 338.218 149.908C338.139 149.944 338.053 149.963 337.966 149.963C337.878 149.963 337.792 149.944 337.713 149.908C337.634 149.871 337.564 149.818 337.507 149.751C337.451 149.685 337.41 149.607 337.386 149.523C337.363 149.439 337.358 149.351 337.372 149.265V141.353C337.372 140.875 337.182 140.416 336.844 140.077C336.506 139.739 336.047 139.549 335.568 139.549C335.09 139.549 334.631 139.739 334.293 140.077C333.955 140.416 333.764 140.875 333.764 141.353V152.429C333.764 153.294 334.108 154.123 334.719 154.734C335.331 155.346 336.16 155.689 337.024 155.689C337.889 155.689 338.718 155.346 339.329 154.734C339.94 154.123 340.284 153.294 340.284 152.429V139.66C340.313 138.529 339.937 137.425 339.224 136.546C338.511 135.668 337.508 135.073 336.395 134.869C335.282 134.664 334.133 134.864 333.155 135.432C332.176 136 331.433 136.899 331.059 137.967V138.489C331.036 138.63 330.963 138.758 330.855 138.85C330.746 138.942 330.608 138.993 330.465 138.993C330.323 138.993 330.185 138.942 330.076 138.85C329.967 138.758 329.895 138.63 329.872 138.489V137.856C329.856 137.794 329.856 137.729 329.872 137.666C330.336 136.336 331.257 135.214 332.47 134.5C333.684 133.785 335.112 133.524 336.5 133.763C337.888 134.002 339.146 134.726 340.05 135.806C340.955 136.886 341.447 138.251 341.439 139.66V152.429C341.439 153.603 340.975 154.729 340.148 155.562C339.321 156.395 338.198 156.867 337.024 156.876Z" fill="#263238"/>
<path d="M421.236 186.086L413.672 181.339L394.305 171.117C394.305 171.117 390.459 174.852 396.963 180.231L404.969 186.561C404.969 186.561 412.09 199.615 413.609 200.565C416.385 201.876 419.226 203.043 422.122 204.062L421.236 186.086Z" fill="#FFBE9D"/>
<path d="M422.866 204.426C422.6 204.408 422.338 204.349 422.091 204.252C421.584 204.109 420.84 203.904 419.891 203.571C418.942 203.239 417.802 202.843 416.505 202.258C415.81 201.956 415.133 201.613 414.479 201.229C413.716 200.799 413.049 200.217 412.517 199.521C410.091 196.124 407.907 192.56 405.982 188.856L405.096 187.273C404.805 186.775 404.418 186.339 403.957 185.992C403.055 185.2 402.042 184.409 401.045 183.65C398.897 182.095 396.841 180.414 394.89 178.618C393.824 177.627 393.132 176.3 392.93 174.859C392.729 173.418 393.029 171.951 393.782 170.706L393.941 170.469L394.21 170.627C401.947 174.994 408.625 178.982 413.672 181.324C416.125 182.669 417.992 183.871 419.274 184.678L420.746 185.643C420.92 185.755 421.084 185.882 421.236 186.023C421.041 185.957 420.855 185.867 420.682 185.754L419.1 184.884C417.771 184.124 415.856 182.969 413.403 181.719C408.308 179.488 401.568 175.548 393.83 171.212L394.241 171.118C393.581 172.191 393.333 173.467 393.545 174.709C393.756 176.014 394.37 177.221 395.301 178.159C397.241 179.918 399.269 181.576 401.378 183.127C402.39 183.919 403.387 184.71 404.321 185.501C404.559 185.71 404.786 185.932 405.001 186.166C405.225 186.401 405.421 186.661 405.587 186.941C405.872 187.479 406.172 187.985 406.457 188.523C408.33 192.213 410.445 195.776 412.786 199.188C413.799 200.388 415.093 201.317 416.552 201.894C417.818 202.495 418.942 202.938 419.875 203.302L422.011 204.094C422.303 204.186 422.588 204.297 422.866 204.426Z" fill="#EB996E"/>
<path d="M631.783 149.249C631.514 144.502 630.928 121.685 630.644 118.203C630.353 113.448 628.306 108.97 624.9 105.64C621.45 102.475 616.086 101.051 611.861 103.124C610.486 103.473 609.228 104.18 608.214 105.172C607.2 106.164 606.466 107.406 606.086 108.773C596.465 142.983 597.984 179.408 593.728 214.79C606.291 216.831 623.191 215.992 635.897 215.328C635.897 187.083 633.508 179.756 631.783 149.249Z" fill="#263238"/>
<path d="M626.482 197.496C626.41 197.196 626.378 196.887 626.387 196.579C626.387 195.882 626.308 194.996 626.26 193.952C626.181 191.562 626.086 188.287 625.96 184.3C625.786 176.056 625.548 164.837 625.295 152.447C625.2 146.244 625.105 140.326 625.026 134.915C625.026 132.225 625.026 129.661 624.931 127.272C624.975 125.063 624.821 122.855 624.472 120.674C624.277 119.103 623.738 117.596 622.893 116.258C622.048 114.92 620.917 113.786 619.583 112.936C618.558 112.385 617.434 112.041 616.276 111.923H616.497C616.729 111.901 616.962 111.901 617.194 111.923C618.084 111.998 618.95 112.251 619.741 112.667C620.991 113.346 622.073 114.298 622.906 115.452C623.992 116.982 624.726 118.732 625.058 120.579C625.439 122.789 625.624 125.029 625.612 127.272C625.612 129.677 625.722 132.225 625.786 134.915C625.896 140.326 626.007 146.244 626.118 152.463C626.292 164.837 626.434 176.056 626.545 184.3C626.545 188.303 626.545 191.563 626.545 193.968C626.545 195.028 626.545 195.898 626.545 196.594C626.56 196.896 626.539 197.199 626.482 197.496Z" fill="#ADADFF"/>
<path d="M615.057 184.521C614.941 183.842 614.894 183.153 614.915 182.464C614.915 181.135 614.836 179.204 614.836 176.831C614.836 172.084 614.931 165.533 615.105 158.301C615.279 151.07 615.485 144.677 615.627 139.756C615.627 137.525 615.754 135.642 615.817 134.155C615.805 133.461 615.858 132.766 615.975 132.082C616.104 132.765 616.157 133.46 616.133 134.155C616.133 135.484 616.133 137.32 616.213 139.772C616.213 144.519 616.118 151.07 615.928 158.317C615.738 165.564 615.548 171.925 615.421 176.846C615.342 179.078 615.279 180.961 615.232 182.464C615.245 183.154 615.186 183.843 615.057 184.521Z" fill="#ADADFF"/>
<path d="M573.094 76.8101C582.588 75.829 590.499 79.9748 598 85.7187C605.512 91.634 611.033 99.7069 613.823 108.852C616.814 118.347 616.861 131.876 613.459 141.259C611.937 145.702 609.359 149.709 605.947 152.937C602.535 156.164 598.391 158.515 593.87 159.788C580.752 163.491 565.973 161.988 555.656 153.079C545.339 144.17 540.038 130.198 540.402 116.574C540.521 107.105 543.621 97.9135 549.263 90.3074C552.101 86.5527 555.681 83.4223 559.781 81.1111C563.88 78.7999 568.412 77.3574 573.094 76.8734" fill="#263238"/>
<path d="M597.541 110.245C596.402 106.59 597.193 102.634 596.908 98.8203C596.259 90.4181 589.993 83.3134 582.445 79.5474C575.42 76.0663 566.622 76.1454 557.697 78.3923C551.541 79.8224 545.92 82.9787 541.494 87.4908C538.668 90.5673 536.619 94.2753 535.518 98.3052C534.417 102.335 534.296 106.57 535.165 110.656L578.157 107.238C581.923 110.799 585.8 114.422 590.515 116.574C591.871 117.282 593.385 117.631 594.914 117.587C595.674 117.544 596.406 117.284 597.022 116.838C597.639 116.392 598.116 115.779 598.395 115.071C598.807 113.473 598.031 111.827 597.541 110.245Z" fill="#263238"/>
<path d="M556.084 90.166L592.747 100.483C594.473 100.711 596.051 101.579 597.167 102.916C598.284 104.252 598.858 105.959 598.775 107.698L593.063 188.129C592.679 193.629 590.487 198.847 586.829 202.971L582.983 207.259C574.217 217.149 557.903 215.029 552.492 202.971C552.163 202.282 551.924 201.553 551.78 200.803C551.669 200.196 551.589 199.583 551.542 198.968C551.166 194.896 551.219 190.797 551.701 186.736C551.811 179.552 551.89 176.609 551.875 176.673C551.859 176.736 536.795 173.761 534.168 153.887C532.871 144.013 533.804 127.905 534.975 114.74C535.972 102.825 544.232 88.5836 556.084 90.166Z" fill="#FFBE9D"/>
<path d="M539.58 130.183C539.554 130.844 539.787 131.489 540.231 131.98C540.675 132.471 541.293 132.769 541.953 132.81C542.275 132.842 542.599 132.811 542.909 132.717C543.218 132.623 543.505 132.468 543.754 132.262C544.003 132.056 544.208 131.802 544.358 131.516C544.508 131.229 544.6 130.916 544.627 130.594C544.653 129.933 544.42 129.288 543.976 128.797C543.532 128.306 542.914 128.008 542.254 127.968C541.932 127.935 541.607 127.967 541.298 128.061C540.989 128.155 540.702 128.309 540.453 128.515C540.204 128.721 539.999 128.975 539.849 129.261C539.699 129.548 539.607 129.861 539.58 130.183Z" fill="#263238"/>
<path d="M538.187 123.189C538.488 123.537 540.45 122.16 543.187 122.24C545.925 122.319 547.934 123.822 548.188 123.41C548.441 122.999 548.029 122.667 547.175 122.002C546.013 121.16 544.622 120.691 543.187 120.657C541.768 120.616 540.372 121.026 539.2 121.828C538.345 122.445 538.045 123.047 538.187 123.189Z" fill="#263238"/>
<path d="M563.995 131.163C563.969 131.824 564.203 132.47 564.646 132.96C565.09 133.451 565.708 133.749 566.369 133.79C566.691 133.825 567.016 133.795 567.326 133.702C567.636 133.608 567.925 133.454 568.174 133.247C568.423 133.041 568.629 132.786 568.778 132.499C568.927 132.212 569.017 131.897 569.043 131.575C569.065 130.915 568.83 130.272 568.387 129.782C567.944 129.292 567.328 128.993 566.669 128.948C566.348 128.915 566.023 128.947 565.714 129.041C565.405 129.135 565.117 129.29 564.868 129.496C564.62 129.702 564.414 129.956 564.264 130.242C564.114 130.528 564.023 130.841 563.995 131.163Z" fill="#263238"/>
<path d="M564.09 124.217C564.391 124.565 566.353 123.188 569.074 123.268C571.796 123.347 573.821 124.85 574.074 124.438C574.328 124.027 573.932 123.695 573.062 123.03C571.901 122.186 570.509 121.717 569.074 121.685C567.655 121.646 566.259 122.056 565.087 122.856C564.232 123.473 563.995 124.075 564.09 124.217Z" fill="#263238"/>
<path d="M554.501 144.391C553.073 143.903 551.59 143.595 550.086 143.473C549.39 143.379 548.741 143.236 548.63 142.746C548.585 142.027 548.768 141.313 549.153 140.704C549.849 139.027 550.577 137.271 551.352 135.451C554.422 127.967 556.653 121.811 556.352 121.685C556.052 121.558 553.314 127.523 550.26 135.008C549.517 136.859 548.805 138.616 548.14 140.293C547.681 141.121 547.53 142.085 547.713 143.015C547.804 143.264 547.951 143.489 548.143 143.673C548.335 143.857 548.567 143.994 548.82 144.075C549.207 144.185 549.605 144.248 550.007 144.265C551.494 144.498 553.004 144.54 554.501 144.391Z" fill="#263238"/>
<path d="M551.811 176.64C561.119 177.044 570.355 174.852 578.49 170.311C578.49 170.311 571.464 183.824 551.716 181.387L551.811 176.64Z" fill="#EB996E"/>
<path d="M555.545 151.005C556.077 150.363 556.766 149.868 557.545 149.569C558.323 149.269 559.166 149.175 559.992 149.296C560.592 149.364 561.173 149.553 561.698 149.852C562.223 150.151 562.681 150.555 563.046 151.037C563.4 151.5 563.604 152.061 563.63 152.644C563.655 153.227 563.501 153.804 563.188 154.297C562.735 154.775 562.15 155.108 561.507 155.251C560.865 155.395 560.194 155.344 559.58 155.104C558.304 154.615 557.137 153.878 556.147 152.936C555.845 152.704 555.588 152.42 555.387 152.097C555.286 151.948 555.231 151.771 555.231 151.591C555.231 151.41 555.286 151.234 555.387 151.084" fill="#EB996E"/>
<path d="M562.54 146.496C562.096 146.496 562.017 149.424 559.375 151.449C556.732 153.474 553.647 153.031 553.599 153.49C553.552 153.949 554.296 154.092 555.625 154.155C557.344 154.201 559.024 153.641 560.372 152.573C561.695 151.558 562.565 150.063 562.793 148.411C563.062 147.224 562.745 146.481 562.54 146.496Z" fill="#263238"/>
<path d="M564.77 116.146C565.008 116.906 567.745 116.621 570.941 117.096C574.138 117.571 576.701 118.504 577.144 117.855C577.334 117.539 576.907 116.827 575.878 116.083C574.519 115.15 572.957 114.553 571.321 114.343C569.684 114.106 568.015 114.258 566.448 114.786C565.261 115.229 564.66 115.798 564.77 116.146Z" fill="#263238"/>
<path d="M539.295 111.273C539.769 111.906 541.652 111.273 543.915 111.273C546.178 111.273 548.093 111.795 548.536 111.162C548.741 110.846 548.456 110.229 547.634 109.58C546.541 108.83 545.24 108.443 543.915 108.472C542.587 108.452 541.286 108.851 540.197 109.612C539.374 110.339 539.089 110.972 539.295 111.273Z" fill="#263238"/>
<path d="M604.724 104.944C601.559 93.3773 585.736 76.8419 573.805 77.1267L554.216 87.7125C554.688 90.9941 556.039 94.0869 558.125 96.6635C560.212 99.2401 562.956 101.205 566.068 102.349C569.39 103.536 573.441 103.932 575.308 107.001C577.176 110.071 575.831 114.312 577.603 117.445C580.04 121.796 587.271 121.923 589.043 126.607C589.818 128.632 589.265 131.005 590.072 133.031C591.164 135.737 597.699 139.36 600.499 138.632C603.3 137.904 603.537 133.173 604.55 130.721C605.816 127.989 606.101 124.904 605.357 121.986C604.408 116.353 606.212 110.467 604.724 104.944Z" fill="#263238"/>
<path d="M592.224 140.594C592.224 139.122 594.075 135.704 595.531 135.514C599.424 135.008 606.418 135.514 606.228 145.372C605.959 158.854 592.477 155.8 592.461 155.42C592.445 155.04 592.081 145.689 592.224 140.594Z" fill="#FFBE9D"/>
<path d="M596.67 150.39C596.67 150.39 596.908 150.564 597.303 150.754C597.857 151.004 598.486 151.032 599.06 150.833C600.5 150.326 601.734 148.095 601.845 145.659C601.903 144.506 601.703 143.354 601.259 142.288C601.142 141.865 600.924 141.477 600.623 141.158C600.323 140.838 599.949 140.596 599.534 140.453C599.265 140.372 598.975 140.389 598.717 140.502C598.459 140.615 598.25 140.817 598.126 141.07C597.936 141.434 598.015 141.703 597.952 141.734C597.889 141.766 597.667 141.497 597.778 140.943C597.867 140.611 598.061 140.317 598.332 140.105C598.712 139.833 599.183 139.719 599.645 139.788C600.194 139.913 600.702 140.174 601.122 140.547C601.543 140.921 601.862 141.394 602.05 141.924C602.606 143.104 602.862 144.403 602.794 145.706C602.652 148.428 601.212 150.944 599.25 151.466C598.886 151.56 598.507 151.574 598.138 151.505C597.768 151.437 597.419 151.289 597.113 151.07C596.702 150.722 596.623 150.421 596.67 150.39Z" fill="#EB996E"/>
<path d="M615.769 123.647C616.247 122.365 616.504 121.011 616.529 119.643C617.034 113 615.278 106.38 611.544 100.861C610.849 99.6643 609.955 98.5943 608.902 97.6963C608.633 97.8545 612.858 102.617 614.757 109.991C616.655 117.365 615.469 123.631 615.769 123.647Z" fill="#7B8195"/>
<path d="M558.394 83.8357C556.811 89.2315 548.014 95.7033 544.153 99.6591C536.652 107.333 535.26 108.457 533.757 132.888C530.627 125.047 529.245 116.618 529.706 108.188C530.354 101.115 533.541 94.5165 538.678 89.6113C541.288 87.1804 544.429 85.3925 547.852 84.3898C551.275 83.3872 554.885 83.1974 558.394 83.8357Z" fill="#263238"/>
<path d="M611.592 105.213C610.832 105.431 610.053 105.574 609.266 105.64C608.522 105.751 607.604 105.877 606.512 105.941C605.421 106.004 604.218 106.131 602.857 106.115C599.684 106.177 596.51 106.002 593.363 105.593C589.487 105.069 585.661 104.227 581.923 103.077C578.202 101.878 574.583 100.386 571.1 98.6144C568.27 97.1368 565.552 95.4551 562.966 93.5826C561.843 92.8231 560.909 92.0002 560.071 91.3515C559.232 90.7027 558.488 90.0539 557.982 89.5318C557.378 89.0198 556.817 88.4588 556.305 87.8545C556.974 88.2775 557.604 88.7594 558.188 89.2944C558.757 89.7849 559.469 90.3704 560.34 90.9875C561.21 91.6046 562.159 92.3958 563.299 93.1237C565.906 94.8867 568.628 96.4726 571.448 97.8707C574.903 99.5944 578.484 101.054 582.16 102.238C585.86 103.358 589.636 104.21 593.458 104.786C596.604 105.222 599.776 105.449 602.952 105.466C604.297 105.466 605.516 105.466 606.592 105.466C607.668 105.466 608.585 105.387 609.329 105.308C610.079 105.214 610.836 105.183 611.592 105.213Z" fill="#ADADFF"/>
<path d="M612.367 114.961C611.852 115.111 611.321 115.201 610.785 115.23C609.33 115.401 607.867 115.491 606.402 115.499C596.685 115.597 587.122 113.066 578.727 108.172C577.467 107.441 576.247 106.643 575.071 105.783C574.61 105.499 574.189 105.153 573.821 104.755C573.9 104.644 575.783 105.941 579.011 107.682C587.443 112.235 596.837 114.719 606.418 114.929C610.073 115.024 612.351 114.818 612.367 114.961Z" fill="#ADADFF"/>
<path d="M615.738 115.482C615.938 116.145 616.049 116.832 616.07 117.524C616.197 118.869 616.276 120.799 616.26 123.188C616.223 125.991 616.043 128.79 615.722 131.575C615.358 134.996 614.674 138.376 613.681 141.67C611.7 147.713 607.655 152.867 602.256 156.228C600.626 157.2 598.897 157.996 597.098 158.601C596.45 158.855 595.776 159.036 595.088 159.139C595.694 158.801 596.329 158.52 596.987 158.301C598.712 157.586 600.374 156.729 601.956 155.737C604.28 154.249 606.339 152.382 608.048 150.215C610.192 147.613 611.834 144.635 612.89 141.433C613.873 138.183 614.566 134.852 614.963 131.48C615.358 128.315 615.564 125.546 615.675 123.173C615.785 120.799 615.785 118.869 615.675 117.555C615.644 116.864 615.665 116.171 615.738 115.482Z" fill="#ADADFF"/>
<path d="M430.54 193.334L469.656 232.893C474.798 231.706 537.918 193.983 537.918 193.983L547.902 242.529C547.902 242.529 483.295 272.277 465.526 268.669C462.614 268.084 457.851 267.704 454.845 263.922C440.572 245.583 413.672 207.1 413.672 207.1L430.54 193.334Z" fill="#FFBE9D"/>
<path d="M481.84 556.307L501.144 598.16L532.301 583.761L512.332 531.971L481.84 556.307Z" fill="#FFBE9D"/>
<path d="M497.537 595.359L508.819 616.879C508.819 616.879 479.894 646.738 482.615 653.479L550.498 620.93L531.842 577.779L497.537 595.359Z" fill="#ADADFF"/>
<path d="M528.361 603.871C529.107 603.777 529.862 603.951 530.491 604.363C531.121 604.775 531.583 605.397 531.795 606.118C531.938 606.862 531.789 607.631 531.38 608.268C530.97 608.904 530.331 609.359 529.595 609.536C528.8 609.675 527.983 609.505 527.309 609.061C526.636 608.617 526.157 607.932 525.972 607.147C525.904 606.357 526.145 605.572 526.643 604.955C527.142 604.339 527.859 603.939 528.646 603.84" fill="#E0E0E0"/>
<g opacity="0.6">
<path d="M550.498 620.866L547.665 615.502L483.644 648.731C483.644 648.731 481.254 651.5 482.615 653.478L550.498 620.866Z" fill="white"/>
</g>
<path d="M507.506 617.085C507.68 617.417 509.404 616.769 511.556 617.085C513.708 617.402 515.227 618.351 515.465 618.066C515.702 617.781 514.294 616.12 511.699 615.819C509.104 615.519 507.284 616.784 507.506 617.085Z" fill="#263238"/>
<path d="M501.793 623.414C501.872 623.778 503.581 623.652 505.385 624.522C507.189 625.392 508.217 626.706 508.55 626.532C508.882 626.358 508.186 624.38 505.939 623.367C503.692 622.354 501.651 623.098 501.793 623.414Z" fill="#263238"/>
<path d="M501.841 633.874C502.173 633.874 501.841 631.928 500.116 630.519C498.391 629.111 496.508 629.143 496.492 629.475C496.476 629.807 497.916 630.33 499.309 631.516C500.701 632.703 501.493 634.001 501.841 633.874Z" fill="#263238"/>
<path d="M504.278 608.777C504.562 609.014 505.86 607.828 507.79 607.052C509.721 606.277 511.461 606.166 511.509 605.802C511.556 605.438 509.578 604.932 507.3 605.802C505.021 606.672 503.977 608.587 504.278 608.777Z" fill="#263238"/>
<path d="M480.305 579.107L432.217 448.358C432.217 448.358 433.357 426.633 437.36 419.765C441.363 412.898 562.602 372.865 562.602 372.865C562.602 372.865 593.49 365.428 614.076 372.865C634.662 380.302 655.581 389.479 653.524 403.91C653.192 406.116 652.663 408.287 651.941 410.398C648.478 420.559 641.983 429.415 633.33 435.769C624.678 442.124 614.285 445.673 603.553 445.937L587.445 447.773L505.717 463.375C504.865 463.549 504.058 463.897 503.347 464.397C502.635 464.897 502.034 465.538 501.581 466.28C501.129 467.022 500.834 467.85 500.715 468.711C500.596 469.573 500.656 470.449 500.891 471.287L527.284 559.249C527.284 559.249 498.454 573.316 480.305 579.107Z" fill="#263238"/>
<path d="M437.835 488.63L436.696 534.708L471.001 535.547L475.954 480.26L437.835 488.63Z" fill="#FFBE9D"/>
<path d="M436.696 528.569L435.271 554.868C435.271 554.868 396.188 568.919 395.713 576.103L471.001 576.862L473.311 529.914L436.696 528.569Z" fill="#ADADFF"/>
<path d="M434.923 540.041C434.81 539.6 434.81 539.137 434.923 538.696C435.177 537.449 435.719 536.279 436.506 535.278C436.752 534.901 437.057 534.565 437.408 534.281C437.641 534.091 437.917 533.96 438.211 533.9C438.506 533.839 438.811 533.851 439.101 533.933C439.268 533.984 439.421 534.072 439.55 534.189C439.678 534.307 439.779 534.452 439.844 534.614C439.956 534.909 439.956 535.236 439.844 535.531C439.626 536.015 439.361 536.476 439.053 536.908C438.468 537.794 437.977 538.68 437.234 539.677C436.993 539.969 436.683 540.196 436.332 540.337C435.981 540.478 435.6 540.528 435.224 540.484C434.524 540.389 433.857 540.129 433.278 539.725C432.236 539.044 431.275 538.248 430.414 537.351C430.013 536.937 429.638 536.498 429.29 536.038C428.891 535.58 428.599 535.04 428.436 534.455C428.369 534.131 428.42 533.794 428.58 533.504C428.739 533.214 428.997 532.99 429.306 532.873C429.608 532.793 429.925 532.782 430.232 532.842C430.54 532.903 430.829 533.032 431.078 533.221C431.798 533.779 432.442 534.428 432.993 535.152C433.769 536.142 434.398 537.24 434.86 538.411C435.057 538.823 435.17 539.269 435.192 539.725C434.426 538.234 433.52 536.82 432.487 535.5C431.946 534.849 431.329 534.265 430.651 533.759C430.503 533.638 430.329 533.553 430.142 533.509C429.956 533.465 429.762 533.464 429.575 533.506C429.419 533.573 429.294 533.697 429.226 533.853C429.158 534.009 429.153 534.185 429.211 534.345C429.38 534.794 429.633 535.207 429.955 535.563C430.297 535.999 430.661 536.416 431.047 536.813C431.873 537.646 432.785 538.388 433.768 539.028C434.239 539.361 434.781 539.577 435.351 539.661C435.581 539.695 435.815 539.666 436.03 539.577C436.245 539.488 436.431 539.342 436.569 539.155C437.202 538.348 437.803 537.335 438.373 536.497C438.662 536.114 438.917 535.707 439.132 535.278C439.291 534.883 439.132 534.645 438.895 534.535C438.215 534.281 437.55 534.978 437.091 535.563C436.069 536.891 435.331 538.415 434.923 540.041Z" fill="#263238"/>
<path d="M458.595 551.845C459.306 552.09 459.906 552.579 460.288 553.226C460.671 553.872 460.811 554.634 460.684 555.374C460.479 556.101 460.006 556.723 459.359 557.114C458.713 557.505 457.942 557.635 457.203 557.478C456.427 557.253 455.766 556.738 455.357 556.041C454.948 555.344 454.822 554.516 455.003 553.728C455.288 552.987 455.85 552.385 456.571 552.051C457.292 551.717 458.115 551.678 458.864 551.94" fill="#E0E0E0"/>
<g opacity="0.6">
<path d="M470.953 576.863L470.811 570.755L398.688 572.337C398.688 572.337 395.317 573.761 395.665 576.135L470.953 576.863Z" fill="white"/>
</g>
<path d="M434.069 554.472C434.069 554.836 435.904 555.026 437.708 556.228C439.512 557.431 440.446 558.982 440.794 558.839C441.142 558.697 440.604 556.576 438.405 555.152C436.205 553.728 433.99 554.14 434.069 554.472Z" fill="#263238"/>
<path d="M426.126 557.652C426.047 558.016 427.629 558.649 428.863 560.215C430.098 561.782 430.446 563.38 430.81 563.38C431.174 563.38 431.427 561.291 429.86 559.377C428.294 557.462 426.142 557.304 426.126 557.652Z" fill="#263238"/>
<path d="M421.584 567.066C421.917 567.145 422.455 565.309 421.584 563.284C420.714 561.259 418.958 560.452 418.799 560.752C418.641 561.053 419.685 562.145 420.382 563.822C421.078 565.499 421.189 567.018 421.584 567.066Z" fill="#263238"/>
<path d="M434.812 545.61C434.971 545.943 436.664 545.452 438.737 545.61C440.809 545.768 442.423 546.449 442.613 546.132C442.803 545.816 441.268 544.55 438.816 544.344C436.363 544.139 434.638 545.31 434.812 545.61Z" fill="#263238"/>
<path d="M457.883 360.746C457.883 360.746 437.312 359.163 435.034 381.395C432.755 403.627 422.011 507.081 422.011 507.081L478.532 511.828L485.97 405.447L562.602 372.85C562.602 372.85 471.602 357.866 457.883 360.746Z" fill="#263238"/>
<path d="M542.602 330.681C542.602 330.681 530.133 365.65 532.507 369.543C534.88 373.436 566.97 389.496 566.97 389.496L647.242 420.32C647.242 420.32 655.486 407.203 655.486 387.091C655.486 366.98 627.574 330.681 627.574 330.681H542.602Z" fill="#263238"/>
<path d="M566.4 371.031C566.28 371.107 566.153 371.171 566.02 371.221L564.881 371.759L560.435 373.737L543.757 381L486.144 405.795L486.397 405.431C485.669 415.938 484.815 427.299 484.071 439.04C482.125 466.478 480.321 491.78 478.897 511.828V512.192H478.533L443.547 509.122L433.911 508.22L431.395 507.967C431.102 507.948 430.811 507.905 430.524 507.841C430.814 507.816 431.105 507.816 431.395 507.841L433.926 507.999L443.579 508.711L478.549 511.417L478.169 511.749C479.545 491.732 481.333 466.415 483.169 438.961C483.992 427.22 484.751 415.859 485.527 405.368V405.052L485.764 404.941L543.504 380.446L560.324 373.405L564.834 371.553L566.005 371.095L566.4 371.031Z" fill="#ADADFF"/>
<path d="M630.248 374.528C629.483 374.385 628.731 374.179 628.001 373.911L621.956 371.964C615.358 369.723 608.59 368.014 601.718 366.854C594.858 365.72 587.852 365.806 581.021 367.107C575.784 368.199 572.777 369.686 572.714 369.512C573.367 369.083 574.068 368.732 574.803 368.468C576.765 367.629 578.799 366.967 580.879 366.49C587.776 364.986 594.897 364.809 601.861 365.967C608.777 367.126 615.568 368.933 622.146 371.363C624.678 372.249 626.719 373.025 628.112 373.578C628.854 373.821 629.57 374.139 630.248 374.528Z" fill="#ADADFF"/>
<path d="M618.903 356.077C616.563 355.944 614.217 355.944 611.877 356.077C609.725 356.22 607.13 356.552 604.282 356.884C601.434 357.217 598.285 357.612 595.041 358.229C589.464 359.117 584.118 361.101 579.313 364.068C577.384 365.393 575.559 366.864 573.854 368.467C574.152 367.881 574.542 367.347 575.009 366.885C576.196 365.612 577.517 364.472 578.949 363.483C583.752 360.305 589.18 358.19 594.867 357.28C598.158 356.663 601.323 356.299 604.187 355.998C607.051 355.698 609.646 355.444 611.846 355.381C613.584 355.3 615.327 355.38 617.051 355.618C617.689 355.675 618.313 355.83 618.903 356.077Z" fill="#ADADFF"/>
<path d="M502.284 604.426C501.979 604.022 501.764 603.558 501.651 603.065C501.265 601.735 501.158 600.34 501.334 598.967C501.38 598.491 501.486 598.023 501.651 597.574C501.763 597.289 501.947 597.039 502.186 596.847C502.425 596.656 502.709 596.53 503.012 596.482C503.196 596.462 503.382 596.482 503.557 596.542C503.732 596.603 503.892 596.701 504.024 596.83C504.254 597.092 504.398 597.418 504.436 597.764C504.484 598.338 504.484 598.915 504.436 599.489C504.341 600.628 504.341 601.736 504.167 603.065C504.106 603.449 503.943 603.811 503.695 604.111C503.448 604.412 503.124 604.64 502.758 604.774C502.065 604.981 501.33 605.008 500.622 604.853C499.342 604.638 498.093 604.266 496.904 603.745C496.335 603.508 495.78 603.239 495.242 602.938C494.67 602.663 494.159 602.276 493.739 601.799C493.502 601.515 493.373 601.156 493.373 600.786C493.373 600.416 493.502 600.058 493.739 599.774C493.978 599.554 494.269 599.398 494.584 599.321C494.9 599.243 495.229 599.247 495.543 599.331C496.478 599.584 497.377 599.956 498.217 600.438C499.428 601.085 500.537 601.906 501.508 602.875C501.884 603.203 502.2 603.594 502.442 604.03C501.036 602.88 499.526 601.863 497.932 600.992C497.133 600.599 496.296 600.291 495.432 600.074C494.989 600.074 494.514 600.074 494.34 600.296C494.236 600.446 494.188 600.629 494.205 600.812C494.223 600.994 494.304 601.165 494.435 601.293C494.795 601.668 495.225 601.969 495.701 602.179C496.211 602.467 496.74 602.72 497.284 602.938C498.422 603.416 499.611 603.761 500.828 603.967C501.379 604.103 501.954 604.103 502.505 603.967C502.729 603.889 502.926 603.749 503.074 603.565C503.222 603.38 503.316 603.158 503.344 602.922C503.502 601.831 503.55 600.549 503.66 599.457C503.724 598.932 503.751 598.403 503.739 597.875C503.739 597.416 503.486 597.21 503.154 597.226C502.426 597.226 502.157 598.27 502.031 599.062C501.77 600.849 501.856 602.671 502.284 604.426Z" fill="#263238"/>
<path d="M540.624 192.811C534.966 195.003 530.249 199.099 527.285 204.393C522.285 213.27 523.63 217.637 524.927 222.875C526.225 228.113 528.551 238.509 528.677 237.844C528.804 237.179 540.624 192.811 540.624 192.811Z" fill="#FFBE9D"/>
<path d="M625.248 208.618C625.248 208.618 618.697 192.795 617.336 191.339L593.158 185.231L578.047 192.637C573.687 194.846 568.805 195.815 563.932 195.438C558.52 194.931 553.773 192.748 551.384 188.744L541.89 191.308C541.89 191.308 526.889 236.578 527.19 249.111C527.491 261.643 532.712 297.245 532.111 304.271C531.51 311.297 534.057 330.68 542.602 330.68H627.574C627.574 330.68 646.752 325.364 647.59 313.828C648.429 302.293 625.248 208.618 625.248 208.618Z" fill="#7B8195"/>
<path d="M598.174 277.324C597.758 277.79 597.279 278.195 596.75 278.527C595.368 279.519 593.895 280.377 592.351 281.09C590.052 282.158 587.611 282.888 585.104 283.258C582.015 283.704 578.87 283.57 575.831 282.863C570.34 281.459 565.345 278.562 561.4 274.492C560.206 273.292 559.101 272.007 558.093 270.647C557.694 270.164 557.359 269.632 557.096 269.065C557.223 268.97 558.758 271.137 561.843 274.033C565.823 277.861 570.731 280.588 576.084 281.945C581.46 283.166 587.085 282.646 592.145 280.457C595.99 278.843 598.079 277.166 598.174 277.324Z" fill="#263238"/>
<g opacity="0.3">
<path d="M558.52 271.027C559.106 277.526 562.241 283.528 567.239 287.721C569.745 289.763 572.698 291.185 575.857 291.872C579.016 292.559 582.292 292.493 585.42 291.677C588.53 290.788 591.334 289.06 593.525 286.682C595.716 284.303 597.21 281.367 597.842 278.195C593.562 280.395 588.998 281.993 584.281 282.942C579.188 283.624 574.007 282.817 569.362 280.618C564.718 278.42 560.81 274.924 558.109 270.553L558.789 271.281" fill="black"/>
</g>
<g opacity="0.3">
<path d="M630.01 284.792C621.039 267.387 611.544 249.348 595.848 237.639C599.329 249.538 602.446 260.725 606.291 272.45C607.383 275.789 609.108 279.681 612.62 280.235C613.902 280.441 615.216 280.125 616.481 280.378C618.665 280.805 620.152 282.751 621.323 284.634C622.275 286.646 623.771 288.351 625.643 289.555C627.637 290.536 630.675 289.555 630.865 287.403C630.83 286.47 630.534 285.566 630.01 284.792Z" fill="black"/>
</g>
<path d="M655.486 251.564L612.684 271.628C612.684 271.628 593.696 233.652 592.224 228.383C590.753 223.113 587.477 214.141 592.335 203.065C594.509 198.361 598.303 194.596 603.025 192.461C607.747 190.325 613.08 189.961 618.048 191.435C636.925 198.176 655.486 251.564 655.486 251.564Z" fill="#7B8195"/>
<path d="M531.367 251.564C529.373 251.564 506.413 263.574 506.413 263.574L491.207 219.474C510.939 208.778 532.87 193.682 544.279 190.612L534.357 225.044L531.367 251.564Z" fill="#7B8195"/>
<path d="M616.877 268.97C624.978 282.293 630.643 289.952 630.643 289.952L557.935 334.257L566.4 353.942L654.79 317.548C657.762 316.367 660.412 314.497 662.522 312.093C664.632 309.689 666.141 306.819 666.926 303.718C667.654 300.805 667.583 297.749 666.721 294.873L651.688 253.384L616.877 268.97Z" fill="#FFBE9D"/>
<path d="M648.334 296.724C645.552 294.996 642.643 293.483 639.631 292.198C634.552 290.284 630.058 290.236 630.137 289.951C633.487 289.712 636.85 290.193 640 291.361C643.149 292.529 646.013 294.358 648.397 296.724H648.334Z" fill="#EB996E"/>
<path d="M534.01 212.338C533.522 212.963 533.108 213.643 532.776 214.363C531.831 216.252 531.042 218.216 530.418 220.234C528.446 226.787 527.24 233.546 526.826 240.377C526.306 247.154 526.385 253.963 527.064 260.726C527.266 262.783 527.583 264.828 528.013 266.85C528.127 267.609 528.329 268.352 528.614 269.065C528.633 268.304 528.559 267.544 528.393 266.802C528.203 265.362 527.95 263.273 527.776 260.694C527.291 253.946 527.291 247.172 527.776 240.424C528.207 233.65 529.304 226.935 531.051 220.376C531.617 218.371 532.298 216.4 533.092 214.474C533.476 213.798 533.783 213.081 534.01 212.338Z" fill="#263238"/>
<path d="M501.508 347.723L519.689 339.052L555.071 336.235L557.966 334.241L566.432 353.926C566.432 353.926 557.159 358.356 552.301 358.752L522.538 357.85L506.983 359.432L501.508 347.723Z" fill="#FFBE9D"/>
<path d="M655.486 251.564C655.195 251.629 654.913 251.73 654.648 251.865L652.274 252.862L643.619 256.707L615.137 269.666L611.671 271.249L612.209 271.439C607.272 261.264 602.952 252.15 599.883 245.567C598.395 242.403 597.193 239.728 596.307 237.798L595.341 235.693C595.244 235.439 595.11 235.199 594.946 234.981C595.004 235.246 595.083 235.505 595.183 235.757C595.373 236.247 595.642 236.975 596.022 237.909C596.765 239.792 597.905 242.482 599.376 245.82C602.304 252.466 606.544 261.644 611.481 271.818L611.655 272.182L612.019 272.008L615.485 270.426L643.793 257.261L652.337 253.178L654.648 252.023C654.943 251.902 655.225 251.748 655.486 251.564Z" fill="#263238"/>
<path d="M616.102 191.546C616.102 191.704 614.092 191.641 610.991 192.385C606.961 193.334 603.243 195.304 600.195 198.106C597.146 200.907 594.87 204.446 593.585 208.382C592.556 211.404 592.446 213.414 592.287 213.398C592.215 212.931 592.215 212.456 592.287 211.99C592.413 210.71 592.657 209.444 593.015 208.208C594.203 204.092 596.504 200.383 599.664 197.491C602.825 194.598 606.722 192.634 610.927 191.815C612.147 191.571 613.387 191.444 614.63 191.435C615.123 191.389 615.621 191.426 616.102 191.546Z" fill="#263238"/>
<path d="M640.707 219.125C640.598 219.779 640.406 220.417 640.138 221.024C639.56 222.741 638.739 224.366 637.701 225.85L636.577 227.258L635.96 228.018L635.232 228.698L633.65 230.106L631.814 231.356C629.001 233.07 625.959 234.375 622.779 235.233C616.07 237.116 609.852 238.002 605.548 239.347C603.222 240.076 600.939 240.937 598.712 241.927C599.226 241.507 599.789 241.151 600.389 240.866C601.056 240.476 601.755 240.142 602.478 239.87L603.823 239.3L605.405 238.794C609.725 237.211 615.959 236.293 622.589 234.442C625.699 233.604 628.68 232.348 631.451 230.708L633.254 229.521L634.837 228.192C635.074 227.97 635.327 227.78 635.549 227.559L636.15 226.847L637.289 225.518C638.339 224.086 639.215 222.535 639.9 220.897C640.109 220.281 640.379 219.687 640.707 219.125Z" fill="white"/>
<path d="M635.074 209.046C634.463 209.116 633.862 209.259 633.286 209.473C631.78 210.195 630.536 211.367 629.726 212.828C629.156 213.729 628.586 214.758 627.827 215.818C627 216.926 626.032 217.921 624.947 218.777C622.42 220.664 619.558 222.055 616.513 222.875C613.348 223.841 610.184 224.458 607.478 225.075C605.032 225.628 602.643 226.407 600.341 227.401C598.257 228.386 596.314 229.647 594.566 231.151C594.566 231.151 594.645 230.993 594.851 230.755C595.149 230.396 595.471 230.058 595.816 229.743C597.097 228.579 598.542 227.608 600.104 226.863C602.409 225.774 604.822 224.931 607.304 224.347C610.073 223.619 613.158 223.034 616.276 222.084C619.22 221.284 621.997 219.96 624.472 218.176C625.523 217.38 626.465 216.449 627.273 215.407C628.017 214.426 628.618 213.397 629.251 212.511C630.15 210.991 631.531 209.816 633.175 209.172C633.626 209.008 634.104 208.933 634.583 208.951C634.9 208.967 635.074 209.014 635.074 209.046Z" fill="white"/>
<path d="M600.547 247.101C600.343 247.255 600.119 247.382 599.883 247.48L597.873 248.414C596.133 249.205 593.585 250.329 590.389 251.579C586.64 253.063 582.784 254.258 578.854 255.155C574.014 256.296 569.014 256.59 564.074 256.025C559.187 255.221 554.408 253.857 549.833 251.958C546.126 250.487 542.268 249.426 538.33 248.794C535.675 248.4 532.974 248.458 530.339 248.968C528.472 249.363 527.491 249.806 527.475 249.727C527.459 249.648 527.696 249.585 528.155 249.363C528.838 249.074 529.542 248.836 530.26 248.651C532.921 248.011 535.678 247.861 538.393 248.208C542.396 248.771 546.32 249.796 550.086 251.262C554.622 253.092 559.345 254.418 564.169 255.218C569.016 255.766 573.921 255.498 578.679 254.427C582.582 253.57 586.421 252.444 590.167 251.056C593.332 249.886 595.959 248.857 597.731 248.145L599.788 247.354C600.026 247.229 600.282 247.143 600.547 247.101Z" fill="white"/>
<path d="M530.307 232.576C530.307 232.576 530.481 232.401 530.861 232.132C531.427 231.761 532.032 231.454 532.665 231.215C535.021 230.328 537.567 230.067 540.054 230.455C543.719 231.016 547.239 232.284 550.419 234.19C554.204 236.54 558.148 238.623 562.223 240.424C566.409 241.908 570.84 242.575 575.277 242.386C578.909 242.25 582.524 241.816 586.085 241.089C589.139 240.503 591.607 239.918 593.3 239.506C594.171 239.263 595.06 239.089 595.959 238.984C595.121 239.327 594.258 239.607 593.379 239.823C591.702 240.313 589.265 240.978 586.211 241.642C582.623 242.46 578.969 242.958 575.293 243.13C570.757 243.367 566.218 242.705 561.938 241.183C557.825 239.373 553.853 237.257 550.055 234.854C546.964 232.962 543.545 231.668 539.975 231.041C537.573 230.609 535.101 230.772 532.776 231.515C531.146 232.038 530.355 232.576 530.307 232.576Z" fill="white"/>
<path d="M522.158 255.076C522.158 255.076 521.984 255.076 521.668 255.076C521.206 254.985 520.756 254.847 520.323 254.665C518.7 253.961 517.272 252.875 516.161 251.5C514.496 249.518 513.287 247.196 512.617 244.696C511.881 241.654 511.498 238.537 511.477 235.408C511.452 232.33 511.209 229.258 510.749 226.214C510.308 223.757 509.429 221.398 508.154 219.252C506.932 217.292 505.247 215.663 503.249 214.505C503.249 214.505 503.423 214.505 503.724 214.647C504.163 214.815 504.587 215.021 504.99 215.264C506.45 216.224 507.686 217.487 508.613 218.967C510.007 221.138 510.974 223.554 511.461 226.088C511.977 229.168 512.247 232.284 512.268 235.408C512.287 238.48 512.637 241.541 513.313 244.538C513.934 246.948 515.043 249.204 516.572 251.168C517.617 252.481 518.927 253.56 520.417 254.332C521.509 254.855 522.174 254.997 522.158 255.076Z" fill="white"/>
<path d="M526.494 243.842C525.629 242.171 524.869 240.448 524.215 238.684L518.914 226.247C516.794 221.389 514.832 217.006 513.329 213.889C511.826 210.771 510.781 208.888 510.876 208.825C511.243 209.181 511.553 209.592 511.794 210.044C512.316 210.866 513.028 212.085 513.851 213.62C515.433 216.689 517.554 221.041 519.674 225.914C521.794 230.788 523.551 235.25 524.753 238.573C525.355 240.156 525.813 241.532 526.114 242.466C526.3 242.906 526.427 243.369 526.494 243.842Z" fill="white"/>
<path d="M399.432 277.862L501.461 278.701C504.768 278.701 507.933 280.283 508.423 283.559L519.579 357.929H572.129C572.943 357.929 573.723 358.252 574.299 358.828C574.875 359.404 575.198 360.184 575.198 360.999C575.198 361.813 574.875 362.594 574.299 363.169C573.723 363.745 572.943 364.068 572.129 364.068H404.353L392.881 285.584C392.733 284.635 392.792 283.665 393.052 282.74C393.313 281.816 393.769 280.958 394.391 280.225C395.012 279.493 395.784 278.903 396.654 278.495C397.524 278.087 398.471 277.871 399.432 277.862Z" fill="#E0E0E0"/>
<path d="M399.432 277.862C398.9 277.84 398.367 277.894 397.85 278.02C396.286 278.388 394.905 279.303 393.957 280.6C393.258 281.557 392.821 282.681 392.691 283.859C392.668 285.267 392.795 286.672 393.071 288.053L394.542 298.417C396.789 314.003 400.017 336.393 404.037 364.1V364.369H404.321L567.144 364.464H571.527C572.329 364.539 573.136 364.385 573.854 364.021C574.394 363.719 574.844 363.278 575.157 362.744C575.47 362.21 575.635 361.602 575.635 360.983C575.635 360.364 575.47 359.756 575.157 359.222C574.844 358.688 574.394 358.247 573.854 357.945C573.144 357.589 572.35 357.436 571.559 357.502H519.69L520.086 357.85C516.066 331.219 512.316 306.376 509.009 284.081C508.908 282.593 508.233 281.203 507.126 280.204C506.013 279.27 504.658 278.672 503.218 278.479C501.851 278.346 500.477 278.299 499.104 278.337H495.1L479.736 278.226L452.44 278.068L413.578 277.862H399.432C399.432 277.862 399.733 277.862 400.35 277.862H403.024L413.42 278.005L452.282 278.432L479.578 278.701L494.942 278.859H498.945C500.287 278.827 501.629 278.874 502.965 279.002C504.277 279.181 505.512 279.73 506.525 280.584C507.482 281.503 508.049 282.755 508.107 284.081C511.446 306.36 515.149 331.219 519.184 357.85V358.198H571.401C572.052 358.128 572.71 358.244 573.3 358.53C573.852 358.841 574.276 359.337 574.496 359.931C574.716 360.525 574.719 361.178 574.502 361.774C574.286 362.365 573.865 362.859 573.316 363.166C572.719 363.466 572.049 363.587 571.385 363.514H567.16L404.337 363.609L404.638 363.878C400.555 336.266 397.217 313.813 394.906 298.227C394.321 294.35 393.799 290.885 393.324 287.894C393.026 286.533 392.888 285.142 392.913 283.749C393.017 282.609 393.421 281.517 394.084 280.584C394.992 279.293 396.334 278.372 397.865 277.989C398.385 277.921 398.908 277.879 399.432 277.862Z" fill="#263238"/>
<path d="M450.32 326.408C453.85 326.408 456.713 323.546 456.713 320.016C456.713 316.485 453.85 313.623 450.32 313.623C446.789 313.623 443.927 316.485 443.927 320.016C443.927 323.546 446.789 326.408 450.32 326.408Z" fill="white"/>
<path d="M515.512 363.356C515.354 363.356 512.11 344.447 508.249 321.076C504.388 297.705 501.382 278.717 501.524 278.701C501.667 278.685 504.911 297.61 508.772 320.981C512.632 344.353 515.655 363.341 515.512 363.356Z" fill="#263238"/>
<path d="M5.42822 689.873C5.42822 689.652 158.488 689.462 347.214 689.462C535.94 689.462 689 689.589 689 689.873C689 690.158 535.972 690.285 347.214 690.285C158.457 690.285 5.42822 690.032 5.42822 689.873Z" fill="#263238"/>
</svg>
