<svg width="28" height="29" viewBox="0 0 28 29" fill="none" xmlns="http://www.w3.org/2000/svg">
<path d="M26.8334 4.15822C25.7162 4.94627 24.4792 5.54901 23.1701 5.94322C22.4674 5.13531 21.5336 4.56269 20.495 4.3028C19.4563 4.0429 18.3628 4.10828 17.3625 4.49008C16.3622 4.87188 15.5033 5.55168 14.9019 6.43755C14.3005 7.32342 13.9857 8.37261 14.0001 9.44322V10.6099C11.9498 10.663 9.91823 10.2083 8.08626 9.28624C6.25428 8.36414 4.67878 7.00329 3.50008 5.32488C3.50008 5.32488 -1.16659 15.8249 9.33341 20.4915C6.9307 22.1225 4.06843 22.9403 1.16675 22.8249C11.6667 28.6582 24.5001 22.8249 24.5001 9.40822C24.499 9.08324 24.4678 8.75908 24.4067 8.43988C25.5975 7.26562 26.4377 5.78305 26.8334 4.15822V4.15822Z" stroke="white" stroke-width="2" stroke-linecap="round" stroke-linejoin="round"/>
</svg>
