<svg width="31" height="31" viewBox="0 0 31 31" fill="none" xmlns="http://www.w3.org/2000/svg">
<path d="M17.79 2.87939H7.79004C7.127 2.87939 6.49111 3.14279 6.02227 3.61163C5.55343 4.08047 5.29004 4.71635 5.29004 5.37939V25.3794C5.29004 26.0424 5.55343 26.6783 6.02227 27.1472C6.49111 27.616 7.127 27.8794 7.79004 27.8794H22.79C23.4531 27.8794 24.089 27.616 24.5578 27.1472C25.0266 26.6783 25.29 26.0424 25.29 25.3794V10.3794L17.79 2.87939Z" stroke="#4646E8" stroke-width="2" stroke-linecap="round" stroke-linejoin="round"/>
<path d="M17.79 2.87939V10.3794H25.29" stroke="#4646E8" stroke-width="2" stroke-linecap="round" stroke-linejoin="round"/>
<path d="M20.29 16.6294H10.29" stroke="black" stroke-width="2" stroke-linecap="round" stroke-linejoin="round"/>
<path d="M20.29 21.6294H10.29" stroke="black" stroke-width="2" stroke-linecap="round" stroke-linejoin="round"/>
<path d="M12.79 11.6294H11.54H10.29" stroke="black" stroke-width="2" stroke-linecap="round" stroke-linejoin="round"/>
</svg>
