<svg width="30" height="31" viewBox="0 0 30 31" fill="none" xmlns="http://www.w3.org/2000/svg">
<circle cx="15" cy="15.8521" r="15" fill="#4646E8"/>
<g clip-path="url(#clip0_1304_1050)">
<path d="M18.75 9.44578C18.947 9.2488 19.1808 9.09255 19.4382 8.98594C19.6956 8.87933 19.9714 8.82446 20.25 8.82446C20.5286 8.82446 20.8044 8.87933 21.0618 8.98594C21.3192 9.09255 21.553 9.2488 21.75 9.44578C21.947 9.64277 22.1032 9.87662 22.2098 10.134C22.3165 10.3914 22.3713 10.6672 22.3713 10.9458C22.3713 11.2244 22.3165 11.5002 22.2098 11.7576C22.1032 12.0149 21.947 12.2488 21.75 12.4458L11.625 22.5708L7.5 23.6958L8.625 19.5708L18.75 9.44578Z" stroke="white" stroke-width="2" stroke-linecap="round" stroke-linejoin="round"/>
</g>
<defs>
<clipPath id="clip0_1304_1050">
<rect width="18" height="18" fill="white" transform="translate(6 7.1958)"/>
</clipPath>
</defs>
</svg>
