<svg width="31" height="31" viewBox="0 0 31 31" fill="none" xmlns="http://www.w3.org/2000/svg">
<path d="M15.29 27.6196C22.1936 27.6196 27.79 22.0232 27.79 15.1196C27.79 8.21607 22.1936 2.61963 15.29 2.61963C8.38648 2.61963 2.79004 8.21607 2.79004 15.1196C2.79004 22.0232 8.38648 27.6196 15.29 27.6196Z" stroke="#4646E8" stroke-width="2" stroke-linecap="round" stroke-linejoin="round"/>
<path d="M11.6523 11.3696C11.9462 10.5342 12.5263 9.82974 13.2898 9.38102C14.0533 8.93231 14.951 8.76828 15.8238 8.918C16.6967 9.06772 17.4884 9.52151 18.0587 10.199C18.629 10.8765 18.9412 11.734 18.9398 12.6196C18.9398 15.1196 15.1898 16.3696 15.1898 16.3696" stroke="#4646E8" stroke-width="2" stroke-linecap="round" stroke-linejoin="round"/>
<path d="M15.29 21.3696H15.3025" stroke="#4646E8" stroke-width="2" stroke-linecap="round" stroke-linejoin="round"/>
</svg>
