<svg width="50" height="51" viewBox="0 0 50 51" fill="none" xmlns="http://www.w3.org/2000/svg">
<circle cx="25" cy="25.3306" r="25" fill="#4646E8"/>
<path d="M38.75 34.2114C38.75 34.8745 38.4866 35.5104 38.0178 35.9792C37.5489 36.448 36.913 36.7114 36.25 36.7114H13.75C13.087 36.7114 12.4511 36.448 11.9822 35.9792C11.5134 35.5104 11.25 34.8745 11.25 34.2114V20.4614C11.25 19.7984 11.5134 19.1625 11.9822 18.6937C12.4511 18.2248 13.087 17.9614 13.75 17.9614H18.75L21.25 14.2114H28.75L31.25 17.9614H36.25C36.913 17.9614 37.5489 18.2248 38.0178 18.6937C38.4866 19.1625 38.75 19.7984 38.75 20.4614V34.2114Z" stroke="white" stroke-width="2" stroke-linecap="round" stroke-linejoin="round"/>
<path d="M25 31.7114C27.7614 31.7114 30 29.4728 30 26.7114C30 23.95 27.7614 21.7114 25 21.7114C22.2386 21.7114 20 23.95 20 26.7114C20 29.4728 22.2386 31.7114 25 31.7114Z" stroke="white" stroke-width="2" stroke-linecap="round" stroke-linejoin="round"/>
</svg>
